<svg width="200" height="200" viewBox="0 0 200 200" fill="none" xmlns="http://www.w3.org/2000/svg">
<g clip-path="url(#clip0_660_3)">
<path d="M91.7145 33.7102L66.8543 8.45938L0 75.3102V124.686L0.174609 124.859L91.7145 33.7102ZM41.9805 99.9988L66.8363 75.143L124.832 133.139L99.977 157.995L41.9805 99.9988ZM124.859 199.825L33.7102 108.286L8.45938 133.146L75.3109 200H124.685L124.859 199.825ZM75.1398 0.173828L166.291 91.716L191.542 66.857L124.691 0H75.3137L75.1398 0.173828ZM75.1254 66.8613L99.9812 42.0055L157.978 100.002L133.122 124.858L75.1254 66.8613ZM133.145 191.54L200 124.685V74.9703L108.286 166.29L133.145 191.54ZM200 200V141.256L141.256 200H200ZM0 141.257V200H58.7398L0 141.257ZM199.828 58.5715L200 58.3992V0H141.261L199.828 58.5715ZM0 0V58.7398L58.7426 0H0Z" fill="black"/>
</g>
<defs>
<clipPath id="clip0_660_3">
<rect width="200" height="200" fill="white"/>
</clipPath>
</defs>
</svg>
